<svg width="26" height="26" viewBox="0 0 26 26" fill="none" xmlns="http://www.w3.org/2000/svg">
<path d="M17.7233 15.1667C17.81 14.4517 17.875 13.7367 17.875 13C17.875 12.2633 17.81 11.5483 17.7233 10.8333H21.385C21.5583 11.5267 21.6666 12.2525 21.6666 13C21.6666 13.7475 21.5583 14.4733 21.385 15.1667M15.8058 21.19C16.4558 19.9875 16.9541 18.6875 17.3008 17.3333H20.4966C19.4471 19.1406 17.7819 20.5097 15.8058 21.19ZM15.535 15.1667H10.465C10.3566 14.4517 10.2916 13.7367 10.2916 13C10.2916 12.2633 10.3566 11.5375 10.465 10.8333H15.535C15.6325 11.5375 15.7083 12.2633 15.7083 13C15.7083 13.7367 15.6325 14.4517 15.535 15.1667ZM13 21.6233C12.1008 20.3233 11.375 18.8825 10.9308 17.3333H15.0691C14.625 18.8825 13.8991 20.3233 13 21.6233ZM8.66663 8.66666H5.50329C6.54205 6.85447 8.20599 5.48327 10.1833 4.80999C9.53329 6.01249 9.04579 7.31249 8.66663 8.66666ZM5.50329 17.3333H8.66663C9.04579 18.6875 9.53329 19.9875 10.1833 21.19C8.21013 20.5093 6.54854 19.14 5.50329 17.3333ZM4.61496 15.1667C4.44163 14.4733 4.33329 13.7475 4.33329 13C4.33329 12.2525 4.44163 11.5267 4.61496 10.8333H8.27663C8.18996 11.5483 8.12496 12.2633 8.12496 13C8.12496 13.7367 8.18996 14.4517 8.27663 15.1667M13 4.36582C13.8991 5.66582 14.625 7.11749 15.0691 8.66666H10.9308C11.375 7.11749 12.1008 5.66582 13 4.36582ZM20.4966 8.66666H17.3008C16.9617 7.3249 16.4597 6.02971 15.8058 4.80999C17.7991 5.49249 19.4566 6.86832 20.4966 8.66666ZM13 2.16666C7.00913 2.16666 2.16663 7.04166 2.16663 13C2.16663 15.8732 3.30799 18.6287 5.33964 20.6603C6.3456 21.6663 7.53986 22.4643 8.85422 23.0087C10.1686 23.5531 11.5773 23.8333 13 23.8333C15.8731 23.8333 18.6286 22.692 20.6603 20.6603C22.6919 18.6287 23.8333 15.8732 23.8333 13C23.8333 11.5773 23.5531 10.1686 23.0087 8.85425C22.4642 7.53989 21.6663 6.34563 20.6603 5.33967C19.6543 4.3337 18.4601 3.53572 17.1457 2.99129C15.8313 2.44687 14.4226 2.16666 13 2.16666Z" fill="#83CBFF"/>
</svg>
